<svg width="289" height="144" viewBox="0 0 289 144" fill="none" xmlns="http://www.w3.org/2000/svg">
<rect width="289" height="144" fill="#F3F3F4"/>
<rect x="156" y="129" width="28" height="2" fill="#8CC2F3"/>
<path d="M20.94 23.8C20.94 22.8 21.0267 21.9267 21.2 21.18C21.3867 20.4333 21.7467 19.7667 22.28 19.18C22.8667 18.54 23.5467 18.12 24.32 17.92C25.0933 17.7067 25.9933 17.6 27.02 17.6H29.78V20.08H27.22C26.0867 20.08 25.2467 20.36 24.7 20.92C24.1533 21.4667 23.88 22.32 23.88 23.48V25.4H29.78V27.92H23.88V47H20.94V27.92H17.2V25.4H20.94V23.8ZM33.9656 18H36.9056V21.3H33.9656V18ZM33.9656 25.4H36.9056V47H33.9656V25.4ZM42.9016 25.4H45.5416V28.82C46.0082 27.9933 46.5682 27.3267 47.2216 26.82C47.8216 26.2867 48.5349 25.8867 49.3616 25.62C50.2016 25.3533 51.0482 25.22 51.9016 25.22C52.4882 25.22 53.0282 25.28 53.5216 25.4V28.16C52.9482 28.0267 52.3949 27.96 51.8616 27.96C50.4749 27.96 49.3082 28.3533 48.3616 29.14C47.3749 29.9133 46.7082 30.9 46.3616 32.1C46.0149 33.3 45.8416 34.6733 45.8416 36.22V47H42.9016V25.4ZM83.0956 32.82C83.0956 31.7267 82.8823 30.78 82.4556 29.98C82.0423 29.1667 81.4623 28.5467 80.7156 28.12C79.969 27.68 79.1223 27.46 78.1756 27.46C77.2956 27.46 76.4756 27.66 75.7156 28.06C74.9556 28.4467 74.3356 29.06 73.8556 29.9C73.3756 30.74 73.1356 31.7933 73.1356 33.06L73.1156 47H70.2156L70.2356 33.02C70.2356 31.8867 70.029 30.9 69.6156 30.06C69.2023 29.22 68.6156 28.58 67.8556 28.14C67.109 27.6867 66.2423 27.46 65.2556 27.46C64.269 27.46 63.3956 27.6933 62.6356 28.16C61.8756 28.6133 61.289 29.2667 60.8756 30.12C60.4623 30.96 60.2556 31.94 60.2556 33.06V47H57.2956V25.4H59.9356V27.68C60.6156 26.7867 61.4823 26.0867 62.5356 25.58C63.589 25.0733 64.749 24.82 66.0156 24.82C67.4423 24.82 68.7023 25.1333 69.7956 25.76C70.9023 26.3867 71.7423 27.2867 72.3156 28.46C72.9423 27.3133 73.829 26.42 74.9756 25.78C76.1223 25.14 77.4156 24.82 78.8556 24.82C80.2956 24.82 81.5556 25.1267 82.6356 25.74C83.729 26.34 84.569 27.2 85.1556 28.32C85.7423 29.44 86.0356 30.7533 86.0356 32.26L86.0156 47H83.0756L83.0956 32.82ZM97.4019 47.6C95.8285 47.6 94.4819 47.3133 93.3619 46.74C92.2552 46.1667 91.4219 45.3933 90.8619 44.42C90.3019 43.4467 90.0219 42.3733 90.0219 41.2C90.0219 39.52 90.5085 38.1667 91.4819 37.14C92.4552 36.1133 93.8019 35.3733 95.5219 34.92C96.5752 34.6667 97.7485 34.44 99.0419 34.24C100.349 34.04 101.855 33.8267 103.562 33.6L105.362 33.36C105.335 31.3733 104.869 29.9133 103.962 28.98C103.069 28.0467 101.615 27.58 99.6019 27.58C98.0819 27.58 96.8152 27.92 95.8019 28.6C94.8019 29.28 94.1019 30.3267 93.7019 31.74L90.8419 30.9C91.3485 28.9533 92.3485 27.4533 93.8419 26.4C95.3485 25.3333 97.2819 24.8 99.6419 24.8C101.615 24.8 103.289 25.1733 104.662 25.92C106.049 26.6667 107.029 27.7333 107.602 29.12C108.029 30.16 108.242 31.6467 108.242 33.58V47H105.622V43.42C104.782 44.7933 103.662 45.8333 102.262 46.54C100.862 47.2467 99.2419 47.6 97.4019 47.6ZM92.9619 41.2C92.9619 41.8667 93.1219 42.4933 93.4419 43.08C93.7752 43.6667 94.3019 44.1467 95.0219 44.52C95.7419 44.88 96.6485 45.06 97.7419 45.06C99.0752 45.06 100.262 44.82 101.302 44.34C102.342 43.8467 103.175 43.1733 103.802 42.32C104.442 41.4533 104.855 40.4733 105.042 39.38C105.229 38.5533 105.322 37.4067 105.322 35.94C104.802 35.9933 104.429 36.04 104.202 36.08C102.389 36.2933 100.915 36.4867 99.7819 36.66C98.6485 36.82 97.6219 37.0267 96.7019 37.28C94.2085 38.0133 92.9619 39.32 92.9619 41.2Z" fill="#0B111A"/>
<path d="M31.46 87V82.96C28.76 83.36 26.52 83.38 25.56 81.78C25.04 80.96 25.12 79.62 25.12 77.9V69.18H31.46V65.4H25.12V59.4H20.32V65.4H16.4V69.18H20.32V78.18C20.32 80.66 20.14 82.48 21.14 84.34C22.82 87.44 27.18 87.82 31.46 87ZM44.5509 87.6C51.0109 87.6 55.3309 82.94 55.3309 76.2C55.3309 69.52 51.0709 64.8 44.5509 64.8C38.1709 64.8 33.8109 69.42 33.8109 76.2C33.8109 82.88 38.0509 87.6 44.5509 87.6ZM38.9109 76.2C38.9109 72.12 40.6709 69.32 44.5509 69.32C48.3309 69.32 50.2309 72.02 50.2309 76.2C50.2309 80.26 48.3709 83.08 44.5509 83.08C40.8309 83.08 38.9109 80.4 38.9109 76.2ZM69.5575 87.6C73.7175 87.6 77.4375 85.36 79.0975 81.44L74.3375 80C73.3975 82 71.6375 83.08 69.2775 83.08C65.9975 83.08 64.0775 81.1 63.6975 77.54H79.3375C79.8975 69.76 75.9775 64.8 69.2775 64.8C62.9175 64.8 58.5375 69.36 58.5375 76.44C58.5375 83 62.9975 87.6 69.5575 87.6ZM63.8175 73.9C64.3775 70.7 66.2375 69.02 69.4775 69.02C72.4575 69.02 74.0375 70.52 74.4575 73.9H63.8175ZM92.88 97.2C97.76 97.2 101.56 95.26 102.54 91.08C102.76 90.12 102.84 89.16 102.84 88.04V65.4H98.62V66.96C97.1 65.58 95.1 64.8 92.64 64.8C86.52 64.8 82.6 69.64 82.6 76.2C82.6 82.68 86.48 87.6 92.46 87.6C94.7 87.6 96.56 86.98 98.02 85.9V87.96C98.08 91.04 95.9 92.62 92.9 92.62C91.2 92.62 89.54 91.86 88.74 90.3L84.3 92.5C85.98 95.44 89.28 97.2 92.88 97.2ZM87.7 76.2C87.7 72.28 89.48 69.12 93.36 69.12C97.04 69.12 98.62 71.98 98.62 76.2C98.62 80.38 97.08 83.28 93.2 83.28C89.44 83.28 87.7 80.16 87.7 76.2ZM118.268 87.6C122.428 87.6 126.148 85.36 127.808 81.44L123.048 80C122.108 82 120.348 83.08 117.988 83.08C114.708 83.08 112.788 81.1 112.408 77.54H128.048C128.608 69.76 124.688 64.8 117.988 64.8C111.628 64.8 107.248 69.36 107.248 76.44C107.248 83 111.708 87.6 118.268 87.6ZM112.528 73.9C113.088 70.7 114.948 69.02 118.188 69.02C121.168 69.02 122.748 70.52 123.168 73.9H112.528ZM137.57 87H142.41L150.25 65.4H145.41L139.99 81.06L134.55 65.4H129.73L137.57 87ZM162.598 87.6C169.058 87.6 173.378 82.94 173.378 76.2C173.378 69.52 169.118 64.8 162.598 64.8C156.218 64.8 151.858 69.42 151.858 76.2C151.858 82.88 156.098 87.6 162.598 87.6ZM156.958 76.2C156.958 72.12 158.718 69.32 162.598 69.32C166.378 69.32 168.278 72.02 168.278 76.2C168.278 80.26 166.418 83.08 162.598 83.08C158.878 83.08 156.958 80.4 156.958 76.2ZM187.604 87.6C191.764 87.6 195.484 85.36 197.144 81.44L192.384 80C191.444 82 189.684 83.08 187.324 83.08C184.044 83.08 182.124 81.1 181.744 77.54H197.384C197.944 69.76 194.024 64.8 187.324 64.8C180.964 64.8 176.584 69.36 176.584 76.44C176.584 83 181.044 87.6 187.604 87.6ZM181.864 73.9C182.424 70.7 184.284 69.02 187.524 69.02C190.504 69.02 192.084 70.52 192.504 73.9H181.864ZM210.927 97.2C215.807 97.2 219.607 95.26 220.587 91.08C220.807 90.12 220.887 89.16 220.887 88.04V65.4H216.667V66.96C215.147 65.58 213.147 64.8 210.687 64.8C204.567 64.8 200.647 69.64 200.647 76.2C200.647 82.68 204.527 87.6 210.507 87.6C212.747 87.6 214.607 86.98 216.067 85.9V87.96C216.127 91.04 213.947 92.62 210.947 92.62C209.247 92.62 207.587 91.86 206.787 90.3L202.347 92.5C204.027 95.44 207.327 97.2 210.927 97.2ZM205.747 76.2C205.747 72.28 207.527 69.12 211.407 69.12C215.087 69.12 216.667 71.98 216.667 76.2C216.667 80.38 215.127 83.28 211.247 83.28C207.487 83.28 205.747 80.16 205.747 76.2ZM235.155 87.6C237.715 87.6 239.775 86.8 241.315 85.4V87H245.575V58.2H240.715V66.46C239.275 65.4 237.495 64.8 235.335 64.8C229.215 64.8 225.295 69.64 225.295 76.2C225.295 82.68 229.175 87.6 235.155 87.6ZM230.395 76.2C230.395 72.28 232.175 69.12 236.055 69.12C239.735 69.12 241.315 71.98 241.315 76.2C241.315 80.38 239.775 83.28 235.895 83.28C232.135 83.28 230.395 80.16 230.395 76.2ZM261.003 87.6C265.163 87.6 268.883 85.36 270.543 81.44L265.783 80C264.843 82 263.083 83.08 260.723 83.08C257.443 83.08 255.523 81.1 255.143 77.54H270.783C271.343 69.76 267.423 64.8 260.723 64.8C254.363 64.8 249.983 69.36 249.983 76.44C249.983 83 254.443 87.6 261.003 87.6ZM255.263 73.9C255.823 70.7 257.683 69.02 260.923 69.02C263.903 69.02 265.483 70.52 265.903 73.9H255.263Z" fill="#0B111A"/>
<path d="M23.4 127H27.16L32.04 112.14L36.94 127H40.7L47.3 105.4H42.58L38.34 119.26L34.08 105.4H30.02L25.74 119.26L21.52 105.4L16.8 105.36L23.4 127ZM55.7384 127.6C59.1784 127.6 61.4784 126.5 63.3184 124.1V127H67.5384V113.74C67.5384 111.88 67.4784 110.34 66.7184 108.82C65.2984 105.96 62.2384 104.8 58.3984 104.8C53.3184 104.8 50.3384 107.22 49.2784 110.86L53.6784 112.24C54.3984 110.04 56.4584 109.22 58.3984 109.22C61.3384 109.22 62.6384 110.38 62.8184 112.86C59.0384 113.42 55.6984 113.88 53.4184 114.62C49.9984 115.8 48.4984 117.94 48.4984 121.08C48.4984 124.64 51.0384 127.6 55.7384 127.6ZM53.2184 121.02C53.2184 119.62 54.1784 118.8 55.8384 118.18C57.3584 117.66 59.3184 117.36 62.7584 116.82C62.7384 117.82 62.6784 119.2 62.2784 120.18C61.7984 121.68 59.9784 123.76 56.6984 123.76C54.4184 123.76 53.2184 122.6 53.2184 121.02ZM78.7853 127.6C82.2253 127.6 84.5253 126.5 86.3653 124.1V127H90.5853V113.74C90.5853 111.88 90.5253 110.34 89.7653 108.82C88.3453 105.96 85.2853 104.8 81.4453 104.8C76.3653 104.8 73.3853 107.22 72.3253 110.86L76.7253 112.24C77.4453 110.04 79.5053 109.22 81.4453 109.22C84.3853 109.22 85.6853 110.38 85.8653 112.86C82.0853 113.42 78.7453 113.88 76.4653 114.62C73.0453 115.8 71.5453 117.94 71.5453 121.08C71.5453 124.64 74.0853 127.6 78.7853 127.6ZM76.2653 121.02C76.2653 119.62 77.2253 118.8 78.8853 118.18C80.4053 117.66 82.3653 117.36 85.8053 116.82C85.7853 117.82 85.7253 119.2 85.3253 120.18C84.8453 121.68 83.0253 123.76 79.7453 123.76C77.4653 123.76 76.2653 122.6 76.2653 121.02ZM95.7922 127H100.632V116.02C100.632 113.52 101.512 111.5 103.492 110.42C104.832 109.64 106.652 109.54 107.952 109.9V105.4C106.012 105.1 103.812 105.44 102.212 106.54C101.312 107.1 100.592 107.92 100.052 108.86V105.4H95.7922V127ZM120.038 127.6C122.598 127.6 124.658 126.8 126.198 125.4V127H130.458V98.2H125.598V106.46C124.158 105.4 122.378 104.8 120.218 104.8C114.098 104.8 110.178 109.64 110.178 116.2C110.178 122.68 114.058 127.6 120.038 127.6ZM115.278 116.2C115.278 112.28 117.058 109.12 120.938 109.12C124.618 109.12 126.198 111.98 126.198 116.2C126.198 120.38 124.658 123.28 120.778 123.28C117.018 123.28 115.278 120.16 115.278 116.2ZM145.886 127.6C150.046 127.6 153.766 125.36 155.426 121.44L150.666 120C149.726 122 147.966 123.08 145.606 123.08C142.326 123.08 140.406 121.1 140.026 117.54H155.666C156.226 109.76 152.306 104.8 145.606 104.8C139.246 104.8 134.866 109.36 134.866 116.44C134.866 123 139.326 127.6 145.886 127.6ZM140.146 113.9C140.706 110.7 142.566 109.02 145.806 109.02C148.786 109.02 150.366 110.52 150.786 113.9H140.146ZM175.068 116.6V127H179.948V114.94C179.948 112.38 179.408 104.78 171.448 104.78C168.328 104.78 165.968 105.94 164.388 107.8V105.4H160.088V127H164.968V115.9C164.968 110.66 167.568 109.32 170.028 109.32C174.628 109.32 175.068 113.94 175.068 116.6Z" fill="#0B111A"/>
</svg>
