<svg width="90" height="66" viewBox="0 0 90 66" fill="none" xmlns="http://www.w3.org/2000/svg">
<rect width="90" height="66" fill="#F3F3F4"/>
<path d="M57.7082 59H61.5298L66.4898 43.8928L71.4702 59H75.2918L82 37.0407H77.2026L72.8931 51.1312L68.5633 37.0407H64.4367L60.0866 51.1312L55.7974 37.0407L51 37L57.7082 59Z" fill="#0B111A"/>
<path d="M50.35 46.1429H43.4928V53H41.2071V46.1429H34.35V43.8571H41.2071V37H43.4928V43.8571H50.35V46.1429Z" fill="#8CC2F3"/>
<path d="M11.9988 13.96C11.9988 13.16 12.0683 12.4613 12.2073 11.864C12.357 11.2667 12.6456 10.7333 13.0733 10.264C13.5437 9.752 14.0889 9.416 14.709 9.256C15.3291 9.08533 16.0507 9 16.874 9H19.087V10.984H17.0343C16.1256 10.984 15.452 11.208 15.0137 11.656C14.5754 12.0933 14.3562 12.776 14.3562 13.704V15.24H19.087V17.256H14.3562V32.52H11.9988V17.256H9V15.24H11.9988V13.96Z" fill="#0B1A16"/>
<path d="M22.4432 9.32H24.8005V11.96H22.4432V9.32ZM22.4432 15.24H24.8005V32.52H22.4432V15.24Z" fill="#0B1A16"/>
<path d="M29.6083 15.24H31.7251V17.976C32.0993 17.3147 32.5483 16.7813 33.0722 16.376C33.5533 15.9493 34.1252 15.6293 34.7881 15.416C35.4616 15.2027 36.1405 15.096 36.8247 15.096C37.2951 15.096 37.7281 15.144 38.1237 15.24V17.448C37.664 17.3413 37.2203 17.288 36.7926 17.288C35.6808 17.288 34.7453 17.6027 33.9862 18.232C33.1951 18.8507 32.6605 19.64 32.3826 20.6C32.1046 21.56 31.9656 22.6587 31.9656 23.896V32.52H29.6083V15.24Z" fill="#0B1A16"/>
<path d="M61.837 21.176C61.837 20.3013 61.666 19.544 61.3238 18.904C60.9924 18.2533 60.5274 17.7573 59.9287 17.416C59.33 17.064 58.6511 16.888 57.892 16.888C57.1864 16.888 56.5289 17.048 55.9195 17.368C55.3101 17.6773 54.813 18.168 54.4281 18.84C54.0432 19.512 53.8508 20.3547 53.8508 21.368L53.8348 32.52H51.5095L51.5255 21.336C51.5255 20.4293 51.3598 19.64 51.0284 18.968C50.6969 18.296 50.2265 17.784 49.6171 17.432C49.0184 17.0693 48.3235 16.888 47.5324 16.888C46.7412 16.888 46.041 17.0747 45.4316 17.448C44.8222 17.8107 44.3518 18.3333 44.0204 19.016C43.689 19.688 43.5232 20.472 43.5232 21.368V32.52H41.1498V15.24H43.2667V17.064C43.8119 16.3493 44.5068 15.7893 45.3514 15.384C46.196 14.9787 47.1261 14.776 48.1418 14.776C49.2857 14.776 50.296 15.0267 51.1727 15.528C52.06 16.0293 52.7336 16.7493 53.1933 17.688C53.6958 16.7707 54.4067 16.056 55.3262 15.544C56.2456 15.032 57.2826 14.776 58.4373 14.776C59.5919 14.776 60.6022 15.0213 61.4682 15.512C62.3448 15.992 63.0184 16.68 63.4888 17.576C63.9592 18.472 64.1944 19.5227 64.1944 20.728L64.1783 32.52H61.821L61.837 21.176Z" fill="#0B1A16"/>
<path d="M73.3082 33C72.0466 33 70.9668 32.7707 70.0688 32.312C69.1814 31.8533 68.5132 31.2347 68.0642 30.456C67.6152 29.6773 67.3907 28.8187 67.3907 27.88C67.3907 26.536 67.7809 25.4533 68.5613 24.632C69.3418 23.8107 70.4216 23.2187 71.8007 22.856C72.6453 22.6533 73.5861 22.472 74.6232 22.312C75.6709 22.152 76.879 21.9813 78.2474 21.8L79.6907 21.608C79.6693 20.0187 79.2952 18.8507 78.5682 18.104C77.8519 17.3573 76.6865 16.984 75.0722 16.984C73.8534 16.984 72.8378 17.256 72.0252 17.8C71.2234 18.344 70.6621 19.1813 70.3414 20.312L68.0482 19.64C68.4544 18.0827 69.2563 16.8827 70.4537 16.04C71.6617 15.1867 73.2119 14.76 75.1043 14.76C76.6865 14.76 78.0283 15.0587 79.1295 15.656C80.2413 16.2533 81.0271 17.1067 81.4868 18.216C81.8289 19.048 82 20.2373 82 21.784V32.52H79.8992V29.656C79.2257 30.7547 78.3276 31.5867 77.2051 32.152C76.0825 32.7173 74.7835 33 73.3082 33ZM69.7481 27.88C69.7481 28.4133 69.8763 28.9147 70.1329 29.384C70.4002 29.8533 70.8225 30.2373 71.3998 30.536C71.9771 30.824 72.7041 30.968 73.5808 30.968C74.6499 30.968 75.6014 30.776 76.4353 30.392C77.2692 29.9973 77.9374 29.4587 78.4399 28.776C78.953 28.0827 79.2845 27.2987 79.4341 26.424C79.5838 25.7627 79.6587 24.8453 79.6587 23.672C79.2417 23.7147 78.9424 23.752 78.7606 23.784C77.3066 23.9547 76.1253 24.1093 75.2165 24.248C74.3078 24.376 73.4846 24.5413 72.7469 24.744C70.7477 25.3307 69.7481 26.376 69.7481 27.88Z" fill="#0B1A16"/>
</svg>
