<svg width="80" height="50" viewBox="0 0 80 50" fill="none" xmlns="http://www.w3.org/2000/svg">
<path d="M73.0083 36.6783H65.7583V43.9283H63.3417V36.6783H56.0917V34.2617H63.3417V27.0117H65.7583V34.2617H73.0083V36.6783Z" fill="#67BEE0"/>
<path d="M2.99884 4.96C2.99884 4.16 3.06833 3.46133 3.20732 2.864C3.35699 2.26667 3.64565 1.73333 4.07329 1.264C4.5437 0.752 5.08894 0.416 5.70902 0.255999C6.3291 0.0853329 7.05075 0 7.87396 0H10.087V1.984H8.03432C7.12559 1.984 6.45205 2.208 6.01372 2.656C5.57538 3.09333 5.35622 3.776 5.35622 4.704V6.24H10.087V8.256H5.35622V23.52H2.99884V8.256H0V6.24H2.99884V4.96Z" fill="#F3F3F4"/>
<path d="M13.4432 0.32H15.8005V2.96H13.4432V0.32ZM13.4432 6.24H15.8005V23.52H13.4432V6.24Z" fill="#F3F3F4"/>
<path d="M20.6083 6.24H22.7251V8.976C23.0993 8.31467 23.5483 7.78133 24.0722 7.376C24.5533 6.94933 25.1252 6.62933 25.7881 6.416C26.4616 6.20267 27.1405 6.096 27.8247 6.096C28.2951 6.096 28.7281 6.144 29.1237 6.24V8.448C28.664 8.34133 28.2203 8.288 27.7926 8.288C26.6808 8.288 25.7453 8.60267 24.9862 9.232C24.1951 9.85067 23.6605 10.64 23.3826 11.6C23.1046 12.56 22.9656 13.6587 22.9656 14.896V23.52H20.6083V6.24Z" fill="#F3F3F4"/>
<path d="M52.837 12.176C52.837 11.3013 52.666 10.544 52.3238 9.904C51.9924 9.25333 51.5274 8.75733 50.9287 8.416C50.33 8.064 49.6511 7.888 48.892 7.888C48.1864 7.888 47.5289 8.048 46.9195 8.368C46.3101 8.67733 45.813 9.168 45.4281 9.84C45.0432 10.512 44.8508 11.3547 44.8508 12.368L44.8348 23.52H42.5095L42.5255 12.336C42.5255 11.4293 42.3598 10.64 42.0284 9.968C41.6969 9.296 41.2265 8.784 40.6171 8.432C40.0184 8.06933 39.3235 7.888 38.5324 7.888C37.7412 7.888 37.041 8.07467 36.4316 8.448C35.8222 8.81067 35.3518 9.33333 35.0204 10.016C34.689 10.688 34.5232 11.472 34.5232 12.368V23.52H32.1498V6.24H34.2667V8.064C34.8119 7.34933 35.5068 6.78933 36.3514 6.384C37.196 5.97867 38.1261 5.776 39.1418 5.776C40.2857 5.776 41.296 6.02667 42.1727 6.528C43.06 7.02933 43.7336 7.74933 44.1933 8.688C44.6958 7.77067 45.4067 7.056 46.3262 6.544C47.2456 6.032 48.2826 5.776 49.4373 5.776C50.5919 5.776 51.6022 6.02133 52.4682 6.512C53.3448 6.992 54.0184 7.68 54.4888 8.576C54.9592 9.472 55.1944 10.5227 55.1944 11.728L55.1783 23.52H52.821L52.837 12.176Z" fill="#F3F3F4"/>
<path d="M64.3082 24C63.0466 24 61.9668 23.7707 61.0688 23.312C60.1814 22.8533 59.5132 22.2347 59.0642 21.456C58.6152 20.6773 58.3907 19.8187 58.3907 18.88C58.3907 17.536 58.7809 16.4533 59.5613 15.632C60.3418 14.8107 61.4216 14.2187 62.8007 13.856C63.6453 13.6533 64.5861 13.472 65.6232 13.312C66.6709 13.152 67.879 12.9813 69.2474 12.8L70.6907 12.608C70.6693 11.0187 70.2952 9.85067 69.5682 9.104C68.8519 8.35733 67.6865 7.984 66.0722 7.984C64.8534 7.984 63.8378 8.256 63.0252 8.8C62.2234 9.344 61.6621 10.1813 61.3414 11.312L59.0482 10.64C59.4544 9.08267 60.2563 7.88267 61.4537 7.04C62.6617 6.18667 64.2119 5.76 66.1043 5.76C67.6865 5.76 69.0283 6.05867 70.1295 6.656C71.2413 7.25333 72.0271 8.10667 72.4868 9.216C72.8289 10.048 73 11.2373 73 12.784V23.52H70.8992V20.656C70.2257 21.7547 69.3276 22.5867 68.2051 23.152C67.0825 23.7173 65.7835 24 64.3082 24ZM60.7481 18.88C60.7481 19.4133 60.8763 19.9147 61.1329 20.384C61.4002 20.8533 61.8225 21.2373 62.3998 21.536C62.9771 21.824 63.7041 21.968 64.5808 21.968C65.6499 21.968 66.6014 21.776 67.4353 21.392C68.2692 20.9973 68.9374 20.4587 69.4399 19.776C69.953 19.0827 70.2845 18.2987 70.4341 17.424C70.5838 16.7627 70.6587 15.8453 70.6587 14.672C70.2417 14.7147 69.9424 14.752 69.7606 14.784C68.3066 14.9547 67.1253 15.1093 66.2165 15.248C65.3078 15.376 64.4846 15.5413 63.7469 15.744C61.7477 16.3307 60.7481 17.376 60.7481 18.88Z" fill="#F3F3F4"/>
<path d="M30.7082 49H34.5298L39.4898 33.8928L44.4702 49H48.2918L55 27.0407H50.2026L45.8931 41.1312L41.5633 27.0407H37.4367L33.0866 41.1312L28.7974 27.0407L24 27L30.7082 49Z" fill="#F3F3F4"/>
</svg>
