<svg width="255" height="114" viewBox="0 0 255 114" fill="none" xmlns="http://www.w3.org/2000/svg">
<rect x="140" y="112" width="28" height="2" fill="#8CC2F3"/>
<path d="M4.94002 6.8C4.94002 5.80001 5.02669 4.92667 5.20002 4.18001C5.38669 3.43334 5.74669 2.76667 6.28002 2.18001C6.86669 1.54001 7.54669 1.12001 8.32002 0.920004C9.09336 0.706672 9.99336 0.600006 11.02 0.600006H13.78V3.08001H11.22C10.0867 3.08001 9.24669 3.36001 8.70002 3.92001C8.15336 4.46667 7.88002 5.32001 7.88002 6.48001V8.40001H13.78V10.92H7.88002V30H4.94002V10.92H1.20002V8.40001H4.94002V6.8Z" fill="#0B111A"/>
<path d="M17.9657 1.00001H20.9056V4.3H17.9657V1.00001ZM17.9657 8.40001H20.9056V30H17.9657V8.40001Z" fill="#0B111A"/>
<path d="M26.9016 8.40001H29.5416V11.82C30.0083 10.9933 30.5683 10.3267 31.2216 9.82001C31.8216 9.28667 32.5349 8.88667 33.3616 8.62001C34.2016 8.35334 35.0483 8.22 35.9016 8.22C36.4883 8.22 37.0283 8.28 37.5216 8.40001V11.16C36.9483 11.0267 36.3949 10.96 35.8616 10.96C34.4749 10.96 33.3083 11.3533 32.3616 12.14C31.3749 12.9133 30.7083 13.9 30.3616 15.1C30.0149 16.3 29.8416 17.6733 29.8416 19.22V30H26.9016V8.40001Z" fill="#0B111A"/>
<path d="M67.0956 15.82C67.0956 14.7267 66.8823 13.78 66.4557 12.98C66.0423 12.1667 65.4623 11.5467 64.7157 11.12C63.969 10.68 63.1223 10.46 62.1757 10.46C61.2957 10.46 60.4757 10.66 59.7157 11.06C58.9557 11.4467 58.3357 12.06 57.8557 12.9C57.3757 13.74 57.1357 14.7933 57.1357 16.06L57.1157 30H54.2156L54.2356 16.02C54.2356 14.8867 54.029 13.9 53.6157 13.06C53.2023 12.22 52.6157 11.58 51.8557 11.14C51.109 10.6867 50.2423 10.46 49.2556 10.46C48.269 10.46 47.3957 10.6933 46.6357 11.16C45.8757 11.6133 45.289 12.2667 44.8756 13.12C44.4623 13.96 44.2556 14.94 44.2556 16.06V30H41.2957V8.40001H43.9356V10.68C44.6156 9.78667 45.4823 9.08667 46.5356 8.58C47.589 8.07334 48.749 7.82 50.0157 7.82C51.4423 7.82 52.7023 8.13334 53.7957 8.76001C54.9023 9.38667 55.7423 10.2867 56.3157 11.46C56.9423 10.3133 57.829 9.42001 58.9757 8.78C60.1223 8.14 61.4156 7.82 62.8556 7.82C64.2956 7.82 65.5557 8.12667 66.6357 8.74001C67.729 9.34001 68.569 10.2 69.1556 11.32C69.7423 12.44 70.0357 13.7533 70.0357 15.26L70.0156 30H67.0757L67.0956 15.82Z" fill="#0B111A"/>
<path d="M81.4019 30.6C79.8286 30.6 78.4819 30.3133 77.3619 29.74C76.2552 29.1667 75.4219 28.3933 74.8619 27.42C74.3019 26.4467 74.0219 25.3733 74.0219 24.2C74.0219 22.52 74.5086 21.1667 75.4819 20.14C76.4552 19.1133 77.8019 18.3733 79.5219 17.92C80.5752 17.6667 81.7486 17.44 83.0419 17.24C84.3486 17.04 85.8552 16.8267 87.5619 16.6L89.3619 16.36C89.3352 14.3733 88.8686 12.9133 87.9619 11.98C87.0686 11.0467 85.6152 10.58 83.6019 10.58C82.0819 10.58 80.8152 10.92 79.8019 11.6C78.8019 12.28 78.1019 13.3267 77.7019 14.74L74.8419 13.9C75.3486 11.9533 76.3486 10.4533 77.8419 9.40001C79.3486 8.33334 81.2819 7.80001 83.6419 7.80001C85.6152 7.80001 87.2886 8.17334 88.6619 8.92001C90.0486 9.66667 91.0286 10.7333 91.6019 12.12C92.0286 13.16 92.2419 14.6467 92.2419 16.58V30H89.6219V26.42C88.7819 27.7933 87.6619 28.8333 86.2619 29.54C84.8619 30.2467 83.2419 30.6 81.4019 30.6ZM76.9619 24.2C76.9619 24.8667 77.1219 25.4933 77.4419 26.08C77.7752 26.6667 78.3019 27.1467 79.0219 27.52C79.7419 27.88 80.6486 28.06 81.7419 28.06C83.0752 28.06 84.2619 27.82 85.3019 27.34C86.3419 26.8467 87.1752 26.1733 87.8019 25.32C88.4419 24.4533 88.8552 23.4733 89.0419 22.38C89.2286 21.5533 89.3219 20.4067 89.3219 18.94C88.8019 18.9933 88.4286 19.04 88.2019 19.08C86.3886 19.2933 84.9152 19.4867 83.7819 19.66C82.6486 19.82 81.6219 20.0267 80.7019 20.28C78.2086 21.0133 76.9619 22.32 76.9619 24.2Z" fill="#0B111A"/>
<path d="M15.46 70V65.96C12.76 66.36 10.52 66.38 9.56002 64.78C9.04002 63.96 9.12002 62.62 9.12002 60.9V52.18H15.46V48.4H9.12002V42.4H4.32002V48.4H0.400024V52.18H4.32002V61.18C4.32002 63.66 4.14002 65.48 5.14002 67.34C6.82002 70.44 11.18 70.82 15.46 70Z" fill="#0B111A"/>
<path d="M28.551 70.6C35.011 70.6 39.331 65.94 39.331 59.2C39.331 52.52 35.071 47.8 28.551 47.8C22.171 47.8 17.811 52.42 17.811 59.2C17.811 65.88 22.051 70.6 28.551 70.6ZM22.911 59.2C22.911 55.12 24.671 52.32 28.551 52.32C32.331 52.32 34.231 55.02 34.231 59.2C34.231 63.26 32.371 66.08 28.551 66.08C24.831 66.08 22.911 63.4 22.911 59.2Z" fill="#0B111A"/>
<path d="M53.5575 70.6C57.7175 70.6 61.4375 68.36 63.0975 64.44L58.3375 63C57.3975 65 55.6375 66.08 53.2775 66.08C49.9975 66.08 48.0775 64.1 47.6975 60.54H63.3375C63.8975 52.76 59.9775 47.8 53.2775 47.8C46.9175 47.8 42.5375 52.36 42.5375 59.44C42.5375 66 46.9975 70.6 53.5575 70.6ZM47.8175 56.9C48.3775 53.7 50.2375 52.02 53.4775 52.02C56.4575 52.02 58.0375 53.52 58.4575 56.9H47.8175Z" fill="#0B111A"/>
<path d="M76.88 80.2C81.76 80.2 85.56 78.26 86.54 74.08C86.76 73.12 86.84 72.16 86.84 71.04V48.4H82.62V49.96C81.1 48.58 79.1 47.8 76.64 47.8C70.52 47.8 66.6 52.64 66.6 59.2C66.6 65.68 70.48 70.6 76.46 70.6C78.7 70.6 80.56 69.98 82.02 68.9V70.96C82.08 74.04 79.9 75.62 76.9 75.62C75.2 75.62 73.54 74.86 72.74 73.3L68.3 75.5C69.98 78.44 73.28 80.2 76.88 80.2ZM71.7 59.2C71.7 55.28 73.48 52.12 77.36 52.12C81.04 52.12 82.62 54.98 82.62 59.2C82.62 63.38 81.08 66.28 77.2 66.28C73.44 66.28 71.7 63.16 71.7 59.2Z" fill="#0B111A"/>
<path d="M102.268 70.6C106.428 70.6 110.148 68.36 111.808 64.44L107.048 63C106.108 65 104.348 66.08 101.988 66.08C98.7085 66.08 96.7885 64.1 96.4085 60.54H112.048C112.608 52.76 108.688 47.8 101.988 47.8C95.6285 47.8 91.2485 52.36 91.2485 59.44C91.2485 66 95.7085 70.6 102.268 70.6ZM96.5285 56.9C97.0885 53.7 98.9485 52.02 102.188 52.02C105.168 52.02 106.748 53.52 107.168 56.9H96.5285Z" fill="#0B111A"/>
<path d="M121.57 70H126.41L134.25 48.4H129.41L123.99 64.06L118.55 48.4H113.73L121.57 70Z" fill="#0B111A"/>
<path d="M146.598 70.6C153.058 70.6 157.378 65.94 157.378 59.2C157.378 52.52 153.118 47.8 146.598 47.8C140.218 47.8 135.858 52.42 135.858 59.2C135.858 65.88 140.098 70.6 146.598 70.6ZM140.958 59.2C140.958 55.12 142.718 52.32 146.598 52.32C150.378 52.32 152.278 55.02 152.278 59.2C152.278 63.26 150.418 66.08 146.598 66.08C142.878 66.08 140.958 63.4 140.958 59.2Z" fill="#0B111A"/>
<path d="M171.604 70.6C175.764 70.6 179.484 68.36 181.144 64.44L176.384 63C175.444 65 173.684 66.08 171.324 66.08C168.044 66.08 166.124 64.1 165.744 60.54H181.384C181.944 52.76 178.024 47.8 171.324 47.8C164.964 47.8 160.584 52.36 160.584 59.44C160.584 66 165.044 70.6 171.604 70.6ZM165.864 56.9C166.424 53.7 168.284 52.02 171.524 52.02C174.504 52.02 176.084 53.52 176.504 56.9H165.864Z" fill="#0B111A"/>
<path d="M194.927 80.2C199.807 80.2 203.607 78.26 204.587 74.08C204.807 73.12 204.887 72.16 204.887 71.04V48.4H200.667V49.96C199.147 48.58 197.147 47.8 194.687 47.8C188.567 47.8 184.647 52.64 184.647 59.2C184.647 65.68 188.527 70.6 194.507 70.6C196.747 70.6 198.607 69.98 200.067 68.9V70.96C200.127 74.04 197.947 75.62 194.947 75.62C193.247 75.62 191.587 74.86 190.787 73.3L186.347 75.5C188.027 78.44 191.327 80.2 194.927 80.2ZM189.747 59.2C189.747 55.28 191.527 52.12 195.407 52.12C199.087 52.12 200.667 54.98 200.667 59.2C200.667 63.38 199.127 66.28 195.247 66.28C191.487 66.28 189.747 63.16 189.747 59.2Z" fill="#0B111A"/>
<path d="M219.155 70.6C221.715 70.6 223.775 69.8 225.315 68.4V70H229.575V41.2H224.715V49.46C223.275 48.4 221.495 47.8 219.335 47.8C213.215 47.8 209.295 52.64 209.295 59.2C209.295 65.68 213.175 70.6 219.155 70.6ZM214.395 59.2C214.395 55.28 216.175 52.12 220.055 52.12C223.735 52.12 225.315 54.98 225.315 59.2C225.315 63.38 223.775 66.28 219.895 66.28C216.135 66.28 214.395 63.16 214.395 59.2Z" fill="#0B111A"/>
<path d="M245.003 70.6C249.163 70.6 252.883 68.36 254.543 64.44L249.783 63C248.843 65 247.083 66.08 244.723 66.08C241.443 66.08 239.523 64.1 239.143 60.54H254.783C255.343 52.76 251.423 47.8 244.723 47.8C238.363 47.8 233.983 52.36 233.983 59.44C233.983 66 238.443 70.6 245.003 70.6ZM239.263 56.9C239.823 53.7 241.683 52.02 244.923 52.02C247.903 52.02 249.483 53.52 249.903 56.9H239.263Z" fill="#0B111A"/>
<path d="M7.40002 110H11.16L16.04 95.14L20.94 110H24.7L31.3 88.4H26.58L22.34 102.26L18.08 88.4H14.02L9.74002 102.26L5.52002 88.4L0.800024 88.36L7.40002 110Z" fill="#0B111A"/>
<path d="M39.7385 110.6C43.1785 110.6 45.4785 109.5 47.3185 107.1V110H51.5385V96.74C51.5385 94.88 51.4785 93.34 50.7185 91.82C49.2985 88.96 46.2385 87.8 42.3985 87.8C37.3185 87.8 34.3385 90.22 33.2785 93.86L37.6785 95.24C38.3985 93.04 40.4585 92.22 42.3985 92.22C45.3385 92.22 46.6385 93.38 46.8185 95.86C43.0385 96.42 39.6985 96.88 37.4185 97.62C33.9985 98.8 32.4985 100.94 32.4985 104.08C32.4985 107.64 35.0385 110.6 39.7385 110.6ZM37.2185 104.02C37.2185 102.62 38.1785 101.8 39.8385 101.18C41.3585 100.66 43.3185 100.36 46.7585 99.82C46.7385 100.82 46.6785 102.2 46.2785 103.18C45.7985 104.68 43.9785 106.76 40.6985 106.76C38.4185 106.76 37.2185 105.6 37.2185 104.02Z" fill="#0B111A"/>
<path d="M62.7853 110.6C66.2253 110.6 68.5253 109.5 70.3653 107.1V110H74.5853V96.74C74.5853 94.88 74.5253 93.34 73.7653 91.82C72.3453 88.96 69.2853 87.8 65.4453 87.8C60.3653 87.8 57.3853 90.22 56.3253 93.86L60.7253 95.24C61.4453 93.04 63.5053 92.22 65.4453 92.22C68.3853 92.22 69.6853 93.38 69.8653 95.86C66.0853 96.42 62.7453 96.88 60.4653 97.62C57.0453 98.8 55.5453 100.94 55.5453 104.08C55.5453 107.64 58.0853 110.6 62.7853 110.6ZM60.2653 104.02C60.2653 102.62 61.2253 101.8 62.8853 101.18C64.4053 100.66 66.3653 100.36 69.8053 99.82C69.7853 100.82 69.7253 102.2 69.3253 103.18C68.8453 104.68 67.0253 106.76 63.7453 106.76C61.4653 106.76 60.2653 105.6 60.2653 104.02Z" fill="#0B111A"/>
<path d="M79.7922 110H84.6322V99.02C84.6322 96.52 85.5122 94.5 87.4922 93.42C88.8322 92.64 90.6522 92.54 91.9522 92.9V88.4C90.0122 88.1 87.8122 88.44 86.2122 89.54C85.3122 90.1 84.5922 90.92 84.0522 91.86V88.4H79.7922V110Z" fill="#0B111A"/>
<path d="M104.038 110.6C106.598 110.6 108.658 109.8 110.198 108.4V110H114.458V81.2H109.598V89.46C108.158 88.4 106.378 87.8 104.218 87.8C98.0981 87.8 94.1781 92.64 94.1781 99.2C94.1781 105.68 98.0581 110.6 104.038 110.6ZM99.2782 99.2C99.2782 95.28 101.058 92.12 104.938 92.12C108.618 92.12 110.198 94.98 110.198 99.2C110.198 103.38 108.658 106.28 104.778 106.28C101.018 106.28 99.2782 103.16 99.2782 99.2Z" fill="#0B111A"/>
<path d="M129.886 110.6C134.046 110.6 137.766 108.36 139.426 104.44L134.666 103C133.726 105 131.966 106.08 129.606 106.08C126.326 106.08 124.406 104.1 124.026 100.54H139.666C140.226 92.76 136.306 87.8 129.606 87.8C123.246 87.8 118.866 92.36 118.866 99.44C118.866 106 123.326 110.6 129.886 110.6ZM124.146 96.9C124.706 93.7 126.566 92.02 129.806 92.02C132.786 92.02 134.366 93.52 134.786 96.9H124.146Z" fill="#0B111A"/>
<path d="M159.068 99.6V110H163.948V97.94C163.948 95.38 163.408 87.78 155.448 87.78C152.328 87.78 149.968 88.94 148.388 90.8V88.4H144.088V110H148.968V98.9C148.968 93.66 151.568 92.32 154.028 92.32C158.628 92.32 159.068 96.94 159.068 99.6Z" fill="#0B111A"/>
</svg>
